<svg width="20" height="20" viewBox="0 0 20 20" fill="none" xmlns="http://www.w3.org/2000/svg">
<path d="M7.13466 18.7735V15.7157C7.13466 14.9352 7.77205 14.3024 8.55831 14.3024H11.4325C11.8101 14.3024 12.1722 14.4513 12.4392 14.7164C12.7062 14.9814 12.8561 15.3409 12.8561 15.7157V18.7735C12.8538 19.098 12.9819 19.41 13.2122 19.6403C13.4426 19.8706 13.7559 20.0001 14.0828 20.0001H16.0437C16.9595 20.0025 17.8386 19.643 18.487 19.0009C19.1355 18.3589 19.4999 17.4871 19.4999 16.5779V7.86698C19.4999 7.13258 19.1719 6.43596 18.6045 5.96479L11.9339 0.675991C10.7735 -0.251316 9.11099 -0.221376 7.98527 0.747101L1.46689 5.96479C0.872619 6.42207 0.51743 7.12076 0.499878 7.86698V16.5691C0.499878 18.464 2.04726 20.0001 3.95605 20.0001H5.87217C6.5511 20.0001 7.10287 19.4563 7.10779 18.7824L7.13466 18.7735Z" fill="white"/>
</svg>
