<svg width="21" height="20" viewBox="0 0 21 20" fill="none" xmlns="http://www.w3.org/2000/svg">
<path d="M5.03829 5.36935e-05C3.70815 5.36935e-05 2.58961 0.882348 2.25342 2.06551H0.753345C0.553444 2.0647 0.361417 2.14097 0.21996 2.27705C0.0786567 2.4133 -0.00036312 2.59808 0.000305486 2.79058C0.00114257 2.98229 0.0808338 3.16562 0.222137 3.30056C0.363273 3.43551 0.554464 3.51097 0.753379 3.51016H2.25063C2.58446 4.69654 3.70566 5.58272 5.03833 5.58272C6.35758 5.58272 7.46944 4.7138 7.81583 3.5455L20.2515 3.51019C20.4505 3.50986 20.6409 3.43327 20.7814 3.29768C20.9216 3.16191 21.0003 2.97794 21 2.78638C20.9995 2.59531 20.9206 2.41215 20.7803 2.27702C20.6399 2.14191 20.4499 2.0658 20.2513 2.06548L7.83622 2.10079C7.5131 0.899424 6.38198 5.36935e-05 5.03829 5.36935e-05ZM5.03829 1.44475C5.81979 1.44475 6.43727 2.0381 6.43727 2.79058C6.43727 3.54322 5.81984 4.1379 5.03829 4.1379C4.25675 4.1379 3.64087 3.54326 3.64087 2.79058C3.64087 2.03789 4.2568 1.44475 5.03829 1.44475ZM13.0513 6.9808C11.699 6.9808 10.5611 7.87874 10.2254 9.08287H0.753044C0.553817 9.08223 0.362454 9.15785 0.221331 9.29296C0.0800281 9.42824 0.000506798 9.61206 1.05771e-06 9.80393C-0.000333803 9.99613 0.0788538 10.1807 0.220324 10.3165C0.361627 10.4524 0.55332 10.5284 0.753066 10.5276H10.2267C10.5634 11.7314 11.7 12.6311 13.051 12.6311C14.4021 12.6311 15.5387 11.7314 15.8754 10.5276H20.2509C20.45 10.5272 20.6405 10.4508 20.7809 10.3151C20.9212 10.1793 20.9999 9.99548 20.9996 9.80393C20.9991 9.61286 20.9202 9.42969 20.7799 9.29457C20.6395 9.15945 20.4495 9.08335 20.2509 9.08286H15.8767C15.541 7.87873 14.4035 6.9808 13.0513 6.9808ZM13.0513 8.4255C13.8529 8.4255 14.4869 9.0319 14.4869 9.80394C14.4869 10.576 13.8529 11.1866 13.0513 11.1866C12.2497 11.1866 11.6157 10.5759 11.6157 9.80394C11.6157 9.03194 12.2497 8.4255 13.0513 8.4255ZM7.22241 14.3454C5.87182 14.3454 4.73374 15.2443 4.39652 16.4475H0.75313C0.55323 16.4469 0.361203 16.523 0.219746 16.6592C0.0784425 16.7953 -0.000577299 16.9802 9.13072e-05 17.1727C0.000928393 17.3643 0.0806196 17.5478 0.221923 17.6827C0.363059 17.8177 0.55425 17.893 0.753164 17.8922H4.39505C4.73006 19.0984 5.8695 20 7.22227 20C8.57517 20 9.71313 19.0983 10.0482 17.8922H20.2513C20.4495 17.8918 20.6395 17.816 20.7796 17.6811C20.9199 17.5463 20.9991 17.3636 21 17.1727C21.0006 16.9809 20.9223 16.7967 20.7818 16.6606C20.6413 16.5246 20.4505 16.448 20.2513 16.4475H10.0469C9.70968 15.2445 8.57295 14.3454 7.22241 14.3454ZM7.22241 15.7901C8.02401 15.7901 8.65802 16.4007 8.65802 17.1727C8.65802 17.9447 8.02401 18.5553 7.22241 18.5553C6.42081 18.5553 5.78679 17.9447 5.78679 17.1727C5.78679 16.4007 6.42081 15.7901 7.22241 15.7901Z" fill="#323335"/>
</svg>
