<svg width="36" height="36" viewBox="0 0 36 36" fill="none" xmlns="http://www.w3.org/2000/svg">
<circle cx="18" cy="18" r="18" transform="rotate(-90 18 18)" fill="#6EC331"/>
<path d="M13.125 10.0489C12.0482 10.0489 11.1427 10.7547 10.8706 11.7012L9.65624 11.7012C9.49441 11.7006 9.33896 11.7616 9.22445 11.8705C9.11006 11.9795 9.04609 12.1273 9.04663 12.2813C9.04731 12.4347 9.11182 12.5813 9.22621 12.6893C9.34046 12.7972 9.49524 12.8576 9.65626 12.857L10.8683 12.857C11.1386 13.8061 12.0462 14.515 13.125 14.515C14.193 14.515 15.0931 13.8199 15.3735 12.8852L25.4404 12.857L25.4403 12.857C25.6014 12.8567 25.7557 12.7954 25.8694 12.687C25.983 12.5784 26.0467 12.4312 26.0464 12.2779C26.046 12.1251 25.9821 11.9785 25.8686 11.8704C25.7549 11.7624 25.601 11.7015 25.4403 11.7012L15.39 11.7295C15.1284 10.7684 14.2128 10.0488 13.125 10.0488L13.125 10.0489ZM13.125 11.2046C13.7576 11.2046 14.2575 11.6793 14.2575 12.2813C14.2575 12.8834 13.7577 13.3591 13.125 13.3591C12.4923 13.3591 11.9938 12.8834 11.9938 12.2813C11.9938 11.6791 12.4924 11.2046 13.125 11.2046ZM19.6117 15.6335C18.517 15.6335 17.5958 16.3518 17.3241 17.3151L9.65599 17.3151C9.49471 17.3146 9.3398 17.3751 9.22556 17.4832C9.11117 17.5914 9.0468 17.7385 9.04639 17.892C9.04612 18.0457 9.11022 18.1934 9.22474 18.302C9.33913 18.4108 9.49431 18.4715 9.65601 18.4709L17.3251 18.4709C17.5977 19.4339 18.5178 20.1537 19.6115 20.1537C20.7052 20.1537 21.6254 19.4339 21.8979 18.4709L25.44 18.4709C25.6011 18.4706 25.7554 18.4095 25.8691 18.3009C25.9826 18.1923 26.0463 18.0452 26.0461 17.892C26.0457 17.7391 25.9818 17.5926 25.8682 17.4845C25.7545 17.3764 25.6007 17.3155 25.44 17.3151L21.8989 17.3151C21.6272 16.3518 20.706 15.6335 19.6113 15.6335L19.6117 15.6335ZM19.6117 16.7892C20.2606 16.7892 20.7739 17.2743 20.7739 17.892C20.7739 18.5096 20.2606 18.9981 19.6117 18.9981C18.9628 18.9981 18.4495 18.5096 18.4495 17.892C18.4495 17.2744 18.9628 16.7892 19.6117 16.7892ZM14.8931 21.5252C13.7998 21.5252 12.8785 22.2443 12.6055 23.2068L9.65606 23.2068C9.49424 23.2063 9.33879 23.2672 9.22428 23.3762C9.10989 23.4851 9.04592 23.633 9.04646 23.787C9.04714 23.9403 9.11165 24.087 9.22604 24.195C9.34029 24.303 9.49507 24.3632 9.65609 24.3626L12.6043 24.3626C12.8755 25.3275 13.7979 26.0488 14.893 26.0488C15.9882 26.0488 16.9094 25.3275 17.1806 24.3626L25.4403 24.3626C25.6007 24.3623 25.7546 24.3017 25.868 24.1937C25.9816 24.0859 26.0457 23.9397 26.0463 23.787C26.0469 23.6335 25.9835 23.4862 25.8698 23.3773C25.756 23.2685 25.6015 23.2072 25.4403 23.2068L17.1796 23.2068C16.9066 22.2444 15.9865 21.5252 14.8932 21.5252L14.8931 21.5252ZM14.8931 22.6809C15.542 22.6809 16.0553 23.1694 16.0553 23.787C16.0553 24.4046 15.542 24.8931 14.8931 24.8931C14.2442 24.8931 13.7309 24.4046 13.7309 23.787C13.7309 23.1694 14.2442 22.6809 14.8931 22.6809Z" fill="white"/>
</svg>
